<svg xmlns="http://www.w3.org/2000/svg" width="22.2" height="22.2" viewBox="0 0 22.2 22.2">
  <path id="Caminho_41" data-name="Caminho 41" d="M3.223,22H18.777A3.226,3.226,0,0,0,22,18.777V3.223A3.226,3.226,0,0,0,18.777,0H3.223A3.226,3.226,0,0,0,0,3.223V18.777A3.226,3.226,0,0,0,3.223,22ZM1.289,3.223A1.936,1.936,0,0,1,3.223,1.289H18.777a1.936,1.936,0,0,1,1.934,1.934V18.777a1.936,1.936,0,0,1-1.934,1.934H3.223a1.936,1.936,0,0,1-1.934-1.934Zm0,0" transform="translate(0.1 0.1)" stroke="#fff" stroke-width="0.2"/>
</svg>
